<svg width="80" height="80" viewBox="0 0 80 80" fill="none" xmlns="http://www.w3.org/2000/svg">
<rect width="80" height="80" rx="40" fill="white"/>
<g clip-path="url(#clip0_10_7)">
<path d="M29.75 24.875V32.1875H34.625V24.875H49.4557L51.6875 27.1068V32.1875H56.5625V27.1068C56.5625 25.8119 56.0521 24.5703 55.1381 23.6562L52.9062 21.4244C51.9922 20.5104 50.7506 20 49.4557 20H34.625C31.9361 20 29.75 22.1861 29.75 24.875ZM20 32.1875V56.5625C20 57.9107 21.0893 59 22.4375 59H24.875C26.2232 59 27.3125 57.9107 27.3125 56.5625V32.1875C27.3125 30.8393 26.2232 29.75 24.875 29.75H22.4375C21.0893 29.75 20 30.8393 20 32.1875ZM56.5625 34.625H29.75V56.5625C29.75 57.9107 30.8393 59 32.1875 59H56.5625C57.9107 59 59 57.9107 59 56.5625V37.0625C59 35.7143 57.9107 34.625 56.5625 34.625ZM39.5 39.5C40.1465 39.5 40.7665 39.7568 41.2236 40.2139C41.6807 40.671 41.9375 41.291 41.9375 41.9375C41.9375 42.584 41.6807 43.204 41.2236 43.6611C40.7665 44.1182 40.1465 44.375 39.5 44.375C38.8535 44.375 38.2335 44.1182 37.7764 43.6611C37.3193 43.204 37.0625 42.584 37.0625 41.9375C37.0625 41.291 37.3193 40.671 37.7764 40.2139C38.2335 39.7568 38.8535 39.5 39.5 39.5ZM46.8125 41.9375C46.8125 41.291 47.0693 40.671 47.5264 40.2139C47.9835 39.7568 48.6035 39.5 49.25 39.5C49.8965 39.5 50.5165 39.7568 50.9736 40.2139C51.4307 40.671 51.6875 41.291 51.6875 41.9375C51.6875 42.584 51.4307 43.204 50.9736 43.6611C50.5165 44.1182 49.8965 44.375 49.25 44.375C48.6035 44.375 47.9835 44.1182 47.5264 43.6611C47.0693 43.204 46.8125 42.584 46.8125 41.9375ZM49.25 49.25C49.8965 49.25 50.5165 49.5068 50.9736 49.9639C51.4307 50.421 51.6875 51.041 51.6875 51.6875C51.6875 52.334 51.4307 52.954 50.9736 53.4111C50.5165 53.8682 49.8965 54.125 49.25 54.125C48.6035 54.125 47.9835 53.8682 47.5264 53.4111C47.0693 52.954 46.8125 52.334 46.8125 51.6875C46.8125 51.041 47.0693 50.421 47.5264 49.9639C47.9835 49.5068 48.6035 49.25 49.25 49.25ZM37.0625 51.6875C37.0625 51.041 37.3193 50.421 37.7764 49.9639C38.2335 49.5068 38.8535 49.25 39.5 49.25C40.1465 49.25 40.7665 49.5068 41.2236 49.9639C41.6807 50.421 41.9375 51.041 41.9375 51.6875C41.9375 52.334 41.6807 52.954 41.2236 53.4111C40.7665 53.8682 40.1465 54.125 39.5 54.125C38.8535 54.125 38.2335 53.8682 37.7764 53.4111C37.3193 52.954 37.0625 52.334 37.0625 51.6875Z" fill="#223886"/>
</g>
<defs>
<clipPath id="clip0_10_7">
<rect width="39" height="39" fill="white" transform="translate(20 20)"/>
</clipPath>
</defs>
</svg>
